<?xml version="1.0" encoding="UTF-8" standalone="no"?>
<!DOCTYPE svg PUBLIC "-//W3C//DTD SVG 1.1//EN"
 "http://www.w3.org/Graphics/SVG/1.1/DTD/svg11.dtd">
<!-- Generated by graphviz version 2.42.4 (0)
 -->
<!-- Title: PCComponentsOntology Pages: 1 -->
<svg width="1849pt" height="1336pt"
 viewBox="0.00 0.00 1848.80 1335.80" xmlns="http://www.w3.org/2000/svg" xmlns:xlink="http://www.w3.org/1999/xlink">
<g id="graph0" class="graph" transform="scale(1 1) rotate(0) translate(32.4 1303.4)">
<title>PCComponentsOntology</title>
<polygon fill="white" stroke="transparent" points="-32.4,32.4 -32.4,-1303.4 1816.4,-1303.4 1816.4,32.4 -32.4,32.4"/>
<text text-anchor="middle" x="892" y="-1249.4" font-family="DejaVu Sans" font-size="22.00">Онтология предметной области: комплектующие персонального компьютера</text>
<!-- Компьютер&#45;&gt;Системный блок -->
<g id="edge1" class="edge">
<title>Компьютер&#45;&gt;Системный блок</title>
<path fill="none" stroke="#333333" d="M66.82,-551.45C113.52,-611.61 261.4,-802.12 314.38,-870.37"/>
<polygon fill="#333333" stroke="#333333" points="312.54,-872.27 319.21,-876.59 316.68,-869.05 312.54,-872.27"/>
<text text-anchor="middle" x="165.5" y="-695" font-family="DejaVu Sans" font-size="10.00">part_of</text>
</g>
<!-- Компьютер&#45;&gt;Периферийные устройства -->
<g id="edge2" class="edge">
<title>Компьютер&#45;&gt;Периферийные устройства</title>
<path fill="none" stroke="#333333" d="M71.37,-514.73C120.76,-466.92 253.81,-338.14 308.99,-284.72"/>
<polygon fill="#333333" stroke="#333333" points="311.15,-286.29 314.71,-279.19 307.49,-282.52 311.15,-286.29"/>
<text text-anchor="middle" x="165.5" y="-440" font-family="DejaVu Sans" font-size="10.00">part_of</text>
</g>
<!-- Системный блок&#45;&gt;Основные комплектующие -->
<g id="edge3" class="edge">
<title>Системный блок&#45;&gt;Основные комплектующие</title>
<path fill="none" stroke="#333333" d="M404.07,-895C450.9,-895 514.02,-895 568.12,-895"/>
<polygon fill="#333333" stroke="#333333" points="568.19,-897.63 575.69,-895 568.19,-892.38 568.19,-897.63"/>
<text text-anchor="middle" x="508.5" y="-898" font-family="DejaVu Sans" font-size="10.00">part_of</text>
</g>
<!-- Системный блок&#45;&gt;Корпус -->
<g id="edge4" class="edge">
<title>Системный блок&#45;&gt;Корпус</title>
<path fill="none" stroke="#333333" d="M404.07,-912.89C473.47,-930.99 578.64,-958.43 637.22,-973.71"/>
<polygon fill="#333333" stroke="#333333" points="636.91,-976.34 644.82,-975.69 638.23,-971.26 636.91,-976.34"/>
<text text-anchor="middle" x="508.5" y="-948" font-family="DejaVu Sans" font-size="10.00">part_of</text>
</g>
<!-- Системный блок&#45;&gt;Блок питания -->
<g id="edge5" class="edge">
<title>Системный блок&#45;&gt;Блок питания</title>
<path fill="none" stroke="#333333" d="M368.89,-877C432.65,-842.62 571.5,-767.77 640.26,-730.7"/>
<polygon fill="#333333" stroke="#333333" points="641.73,-732.88 647.09,-727.01 639.24,-728.26 641.73,-732.88"/>
<text text-anchor="middle" x="508.5" y="-816" font-family="DejaVu Sans" font-size="10.00">part_of</text>
</g>
<!-- Системный блок&#45;&gt;Система охлаждения -->
<g id="edge6" class="edge">
<title>Системный блок&#45;&gt;Система охлаждения</title>
<path fill="none" stroke="#333333" d="M360.87,-913.09C422.68,-957.16 580.94,-1070.01 648.81,-1118.41"/>
<polygon fill="#333333" stroke="#333333" points="647.46,-1120.67 655.09,-1122.88 650.51,-1116.39 647.46,-1120.67"/>
<text text-anchor="middle" x="508.5" y="-1035" font-family="DejaVu Sans" font-size="10.00">part_of</text>
</g>
<!-- Периферийные устройства&#45;&gt;Устройство ввода -->
<g id="edge12" class="edge">
<title>Периферийные устройства&#45;&gt;Устройство ввода</title>
<path fill="none" stroke="#333333" d="M441.36,-261C492.3,-261 552.4,-261 599.61,-261"/>
<polygon fill="#333333" stroke="#333333" points="599.87,-263.63 607.37,-261 599.87,-258.38 599.87,-263.63"/>
<text text-anchor="middle" x="508.5" y="-264" font-family="DejaVu Sans" font-size="10.00">has_type</text>
</g>
<!-- Периферийные устройства&#45;&gt;Устройство вывода -->
<g id="edge13" class="edge">
<title>Периферийные устройства&#45;&gt;Устройство вывода</title>
<path fill="none" stroke="#333333" d="M376.09,-243C440.11,-214.61 564.25,-159.56 632.56,-129.26"/>
<polygon fill="#333333" stroke="#333333" points="634.01,-131.49 639.8,-126.05 631.88,-126.69 634.01,-131.49"/>
<text text-anchor="middle" x="508.5" y="-196" font-family="DejaVu Sans" font-size="10.00">has_type</text>
</g>
<!-- Основные комплектующие&#45;&gt;Материнская плата -->
<g id="edge7" class="edge">
<title>Основные комплектующие&#45;&gt;Материнская плата</title>
<path fill="none" stroke="#333333" d="M702.08,-876.7C759.89,-822.66 929.87,-663.77 994.33,-603.53"/>
<polygon fill="#333333" stroke="#333333" points="996.18,-605.39 999.87,-598.35 992.6,-601.55 996.18,-605.39"/>
<text text-anchor="middle" x="861.5" y="-742" font-family="DejaVu Sans" font-size="10.00">part_of</text>
</g>
<!-- Основные комплектующие&#45;&gt;Процессор -->
<g id="edge8" class="edge">
<title>Основные комплектующие&#45;&gt;Процессор</title>
<path fill="none" stroke="#333333" d="M709.79,-913.06C770.84,-953.46 918.32,-1051.05 985.34,-1095.4"/>
<polygon fill="#333333" stroke="#333333" points="984.25,-1097.82 991.95,-1099.77 987.15,-1093.44 984.25,-1097.82"/>
<text text-anchor="middle" x="861.5" y="-1038" font-family="DejaVu Sans" font-size="10.00">part_of</text>
</g>
<!-- Основные комплектующие&#45;&gt;Оперативная память -->
<g id="edge9" class="edge">
<title>Основные комплектующие&#45;&gt;Оперативная память</title>
<path fill="none" stroke="#333333" d="M774.59,-913.03C822.41,-922.4 880.64,-933.81 928.33,-943.14"/>
<polygon fill="#333333" stroke="#333333" points="928.02,-945.76 935.89,-944.62 929.03,-940.61 928.02,-945.76"/>
<text text-anchor="middle" x="861.5" y="-980" font-family="DejaVu Sans" font-size="10.00">part_of</text>
</g>
<!-- Основные комплектующие&#45;&gt;Накопитель данных -->
<g id="edge10" class="edge">
<title>Основные комплектующие&#45;&gt;Накопитель данных</title>
<path fill="none" stroke="#333333" d="M720.83,-876.92C783.42,-847.39 907.26,-788.96 974.13,-757.41"/>
<polygon fill="#333333" stroke="#333333" points="975.54,-759.64 981.21,-754.07 973.3,-754.89 975.54,-759.64"/>
<text text-anchor="middle" x="861.5" y="-829" font-family="DejaVu Sans" font-size="10.00">part_of</text>
</g>
<!-- Основные комплектующие&#45;&gt;Видеокарта -->
<g id="edge11" class="edge">
<title>Основные комплектующие&#45;&gt;Видеокарта</title>
<path fill="none" stroke="#333333" d="M770.6,-876.96C829.9,-864.82 906.54,-849.13 959.02,-838.38"/>
<polygon fill="#333333" stroke="#333333" points="959.76,-840.91 966.58,-836.83 958.71,-835.77 959.76,-840.91"/>
<text text-anchor="middle" x="861.5" y="-910" font-family="DejaVu Sans" font-size="10.00">part_of</text>
</g>
<!-- Блок питания&#45;&gt;Материнская плата -->
<g id="edge34" class="edge">
<title>Блок питания&#45;&gt;Материнская плата</title>
<path fill="none" stroke="#333333" d="M729.71,-690.93C791.55,-667.26 899.74,-625.84 964.99,-600.87"/>
<polygon fill="#333333" stroke="#333333" points="966.27,-603.19 972.33,-598.05 964.39,-598.28 966.27,-603.19"/>
<text text-anchor="middle" x="861.5" y="-631" font-family="DejaVu Sans" font-size="10.00">powers</text>
</g>
<!-- Блок питания&#45;&gt;Видеокарта -->
<g id="edge35" class="edge">
<title>Блок питания&#45;&gt;Видеокарта</title>
<path fill="none" stroke="#333333" d="M734.42,-727.02C795.4,-748.2 896.33,-783.24 960.3,-805.45"/>
<polygon fill="#333333" stroke="#333333" points="959.58,-807.97 967.52,-807.95 961.3,-803.01 959.58,-807.97"/>
<text text-anchor="middle" x="861.5" y="-780" font-family="DejaVu Sans" font-size="10.00">powers</text>
</g>
<!-- Система охлаждения&#45;&gt;Процессор -->
<g id="edge36" class="edge">
<title>Система охлаждения&#45;&gt;Процессор</title>
<path fill="none" stroke="#333333" d="M768.41,-1135.14C829.38,-1130.98 909.5,-1125.51 962.66,-1121.88"/>
<polygon fill="#333333" stroke="#333333" points="963,-1124.49 970.31,-1121.36 962.64,-1119.25 963,-1124.49"/>
<text text-anchor="middle" x="861.5" y="-1133" font-family="DejaVu Sans" font-size="10.00">cools</text>
</g>
<!-- Материнская плата&#45;&gt;BIOS/UEFI -->
<g id="edge20" class="edge">
<title>Материнская плата&#45;&gt;BIOS/UEFI</title>
<path fill="none" stroke="#333333" d="M1100.84,-582.65C1162.37,-584.7 1245.87,-587.49 1299.1,-589.27"/>
<polygon fill="#333333" stroke="#333333" points="1299.15,-591.9 1306.73,-589.52 1299.32,-586.65 1299.15,-591.9"/>
<text text-anchor="middle" x="1179.5" y="-589" font-family="DejaVu Sans" font-size="10.00">contains</text>
</g>
<!-- Процессор&#45;&gt;Материнская плата -->
<g id="edge30" class="edge">
<title>Процессор&#45;&gt;Материнская плата</title>
<path fill="none" stroke="#333333" d="M1007.68,-1099.79C970.78,-1047.39 867,-900 867,-900 867,-900 972.42,-680.22 1008.54,-604.94"/>
<polygon fill="#333333" stroke="#333333" points="1010.93,-606.02 1011.81,-598.12 1006.2,-603.75 1010.93,-606.02"/>
<text text-anchor="middle" x="861.5" y="-897.5" font-family="DejaVu Sans" font-size="10.00">connects_to</text>
</g>
<!-- Оперативная память&#45;&gt;Материнская плата -->
<g id="edge31" class="edge">
<title>Оперативная память&#45;&gt;Материнская плата</title>
<path fill="none" stroke="#333333" d="M984.51,-942.95C939.14,-920.19 867,-884 867,-884 867,-884 971.04,-677.95 1007.81,-605.12"/>
<polygon fill="#333333" stroke="#333333" points="1010.32,-605.98 1011.36,-598.11 1005.63,-603.62 1010.32,-605.98"/>
<text text-anchor="middle" x="861.5" y="-881.5" font-family="DejaVu Sans" font-size="10.00">connects_to</text>
</g>
<!-- Видеокарта&#45;&gt;Материнская плата -->
<g id="edge32" class="edge">
<title>Видеокарта&#45;&gt;Материнская плата</title>
<path fill="none" stroke="#333333" d="M1004.07,-807.91C964.47,-764.32 867,-657 867,-657 867,-657 932.27,-624.26 977.69,-601.48"/>
<polygon fill="#333333" stroke="#333333" points="978.98,-603.76 984.51,-598.05 976.63,-599.07 978.98,-603.76"/>
<text text-anchor="middle" x="861.5" y="-654.5" font-family="DejaVu Sans" font-size="10.00">connects_to</text>
</g>
<!-- Клавиатура&#45;&gt;Устройство ввода -->
<g id="edge14" class="edge">
<title>Клавиатура&#45;&gt;Устройство ввода</title>
<path fill="none" stroke="#333333" d="M967.39,-207.74C912.88,-217.93 826.58,-234.07 763.23,-245.91"/>
<polygon fill="#333333" stroke="#333333" points="762.51,-243.37 755.62,-247.33 763.48,-248.53 762.51,-243.37"/>
<text text-anchor="middle" x="861.5" y="-234" font-family="DejaVu Sans" font-size="10.00">is_a</text>
</g>
<!-- Мышь&#45;&gt;Устройство ввода -->
<g id="edge15" class="edge">
<title>Мышь&#45;&gt;Устройство ввода</title>
<path fill="none" stroke="#333333" d="M987.25,-285.42C936.17,-281.32 835.07,-273.22 763.34,-267.48"/>
<polygon fill="#333333" stroke="#333333" points="763.31,-264.84 755.62,-266.86 762.89,-270.07 763.31,-264.84"/>
<text text-anchor="middle" x="861.5" y="-279" font-family="DejaVu Sans" font-size="10.00">is_a</text>
</g>
<!-- Монитор&#45;&gt;Устройство вывода -->
<g id="edge16" class="edge">
<title>Монитор&#45;&gt;Устройство вывода</title>
<path fill="none" stroke="#333333" d="M977.85,-29.12C922.98,-43.78 825.49,-69.81 757.59,-87.95"/>
<polygon fill="#333333" stroke="#333333" points="756.86,-85.42 750.29,-89.9 758.21,-90.5 756.86,-85.42"/>
<text text-anchor="middle" x="861.5" y="-68" font-family="DejaVu Sans" font-size="10.00">is_a</text>
</g>
<!-- Принтер&#45;&gt;Устройство вывода -->
<g id="edge17" class="edge">
<title>Принтер&#45;&gt;Устройство вывода</title>
<path fill="none" stroke="#333333" d="M978.7,-108C926.92,-108 836.21,-108 768.78,-108"/>
<polygon fill="#333333" stroke="#333333" points="768.59,-105.38 761.09,-108 768.59,-110.63 768.59,-105.38"/>
<text text-anchor="middle" x="861.5" y="-111" font-family="DejaVu Sans" font-size="10.00">is_a</text>
</g>
<!-- BIOS/UEFI&#45;&gt;Операционная система -->
<g id="edge21" class="edge">
<title>BIOS/UEFI&#45;&gt;Операционная система</title>
<path fill="none" stroke="#333333" d="M1397.34,-602.86C1452.58,-617.63 1547.83,-643.11 1614.51,-660.94"/>
<polygon fill="#333333" stroke="#333333" points="1614.17,-663.57 1622.09,-662.97 1615.52,-658.5 1614.17,-663.57"/>
<text text-anchor="middle" x="1523.5" y="-647" font-family="DejaVu Sans" font-size="10.00">loads</text>
</g>
<!-- HDD&#45;&gt;Накопитель данных -->
<g id="edge18" class="edge">
<title>HDD&#45;&gt;Накопитель данных</title>
<path fill="none" stroke="#333333" d="M1324.71,-768.21C1278.75,-763.33 1181.83,-753.03 1109.87,-745.39"/>
<polygon fill="#333333" stroke="#333333" points="1109.84,-742.74 1102.1,-744.56 1109.29,-747.96 1109.84,-742.74"/>
<text text-anchor="middle" x="1179.5" y="-758" font-family="DejaVu Sans" font-size="10.00">is_a</text>
</g>
<!-- SSD&#45;&gt;Материнская плата -->
<g id="edge33" class="edge">
<title>SSD&#45;&gt;Материнская плата</title>
<path fill="none" stroke="#333333" d="M1324.94,-507.25C1277.82,-518.55 1176.63,-542.81 1104.05,-560.21"/>
<polygon fill="#333333" stroke="#333333" points="1103.36,-557.67 1096.68,-561.97 1104.59,-562.78 1103.36,-557.67"/>
<text text-anchor="middle" x="1179.5" y="-550" font-family="DejaVu Sans" font-size="10.00">connects_to</text>
</g>
<!-- SSD&#45;&gt;Накопитель данных -->
<g id="edge19" class="edge">
<title>SSD&#45;&gt;Накопитель данных</title>
<path fill="none" stroke="#333333" d="M1325.61,-519.11C1266.22,-561.46 1118.4,-666.89 1053.22,-713.37"/>
<polygon fill="#333333" stroke="#333333" points="1051.39,-711.46 1046.81,-717.95 1054.44,-715.73 1051.39,-711.46"/>
<text text-anchor="middle" x="1179.5" y="-650" font-family="DejaVu Sans" font-size="10.00">is_a</text>
</g>
<!-- Intel Core i5&#45;&gt;Процессор -->
<g id="edge24" class="edge">
<title>Intel Core i5&#45;&gt;Процессор</title>
<path fill="none" stroke="#333333" d="M1298.88,-1128.94C1238.87,-1126.58 1140.61,-1122.7 1078.58,-1120.25"/>
<polygon fill="#333333" stroke="#333333" points="1078.43,-1117.62 1070.83,-1119.95 1078.22,-1122.86 1078.43,-1117.62"/>
<text text-anchor="middle" x="1179.5" y="-1128" font-family="DejaVu Sans" font-size="10.00">instance_of</text>
</g>
<!-- AMD Ryzen 5&#45;&gt;Процессор -->
<g id="edge25" class="edge">
<title>AMD Ryzen 5&#45;&gt;Процессор</title>
<path fill="none" stroke="#333333" d="M1296.39,-1203.93C1236.02,-1185.06 1139.26,-1154.81 1078.11,-1135.69"/>
<polygon fill="#333333" stroke="#333333" points="1078.77,-1133.15 1070.83,-1133.42 1077.2,-1138.16 1078.77,-1133.15"/>
<text text-anchor="middle" x="1179.5" y="-1178" font-family="DejaVu Sans" font-size="10.00">instance_of</text>
</g>
<!-- Kingston Fury 16 GB&#45;&gt;Оперативная память -->
<g id="edge26" class="edge">
<title>Kingston Fury 16 GB&#45;&gt;Оперативная память</title>
<path fill="none" stroke="#333333" d="M1272.89,-953.37C1224.84,-954.83 1163.03,-956.7 1112.73,-958.23"/>
<polygon fill="#333333" stroke="#333333" points="1112.49,-955.61 1105.07,-958.46 1112.65,-960.86 1112.49,-955.61"/>
<text text-anchor="middle" x="1179.5" y="-959" font-family="DejaVu Sans" font-size="10.00">instance_of</text>
</g>
<!-- NVIDIA GeForce RTX 3060&#45;&gt;Видеокарта -->
<g id="edge28" class="edge">
<title>NVIDIA GeForce RTX 3060&#45;&gt;Видеокарта</title>
<path fill="none" stroke="#333333" d="M1253.79,-850.67C1197.97,-844.75 1129.66,-837.49 1081.61,-832.38"/>
<polygon fill="#333333" stroke="#333333" points="1081.81,-829.77 1074.07,-831.58 1081.26,-834.99 1081.81,-829.77"/>
<text text-anchor="middle" x="1179.5" y="-848" font-family="DejaVu Sans" font-size="10.00">instance_of</text>
</g>
<!-- Chieftec 650W&#45;&gt;Блок питания -->
<g id="edge29" class="edge">
<title>Chieftec 650W&#45;&gt;Блок питания</title>
<path fill="none" stroke="#333333" d="M1291.41,-413.8C1202.99,-417.89 1049,-425 1049,-425 1049,-425 798.34,-618.71 711.04,-686.17"/>
<polygon fill="#333333" stroke="#333333" points="709.38,-684.14 705.05,-690.8 712.59,-688.29 709.38,-684.14"/>
<text text-anchor="middle" x="1020.5" y="-417" font-family="DejaVu Sans" font-size="10.00">instance_of</text>
</g>
<!-- Samsung 970 EVO&#45;&gt;SSD -->
<g id="edge27" class="edge">
<title>Samsung 970 EVO&#45;&gt;SSD</title>
<path fill="none" stroke="#333333" d="M1616.99,-501C1545.87,-501 1440.53,-501 1386.95,-501"/>
<polygon fill="#333333" stroke="#333333" points="1386.62,-498.38 1379.12,-501 1386.62,-503.63 1386.62,-498.38"/>
<text text-anchor="middle" x="1523.5" y="-504" font-family="DejaVu Sans" font-size="10.00">instance_of</text>
</g>
<!-- Windows 11&#45;&gt;Операционная система -->
<g id="edge22" class="edge">
<title>Windows 11&#45;&gt;Операционная система</title>
<path fill="none" stroke="#333333" d="M1370.15,-1022.65C1426.18,-962.71 1603.88,-772.6 1666.99,-705.08"/>
<polygon fill="#333333" stroke="#333333" points="1669.18,-706.58 1672.38,-699.31 1665.35,-703 1669.18,-706.58"/>
<text text-anchor="middle" x="1523.5" y="-938" font-family="DejaVu Sans" font-size="10.00">instance_of</text>
</g>
<!-- Ubuntu Linux&#45;&gt;Операционная система -->
<g id="edge23" class="edge">
<title>Ubuntu Linux&#45;&gt;Операционная система</title>
<path fill="none" stroke="#333333" d="M1408.19,-681C1457.18,-681 1529.98,-681 1589.25,-681"/>
<polygon fill="#333333" stroke="#333333" points="1589.27,-683.63 1596.77,-681 1589.27,-678.38 1589.27,-683.63"/>
<text text-anchor="middle" x="1523.5" y="-684" font-family="DejaVu Sans" font-size="10.00">instance_of</text>
</g>
<!-- Компьютер -->
<g id="node1" class="node">
<title>Компьютер</title>
<path fill="#f8f8f8" stroke="#404040" d="M91,-551C91,-551 12,-551 12,-551 6,-551 0,-545 0,-539 0,-539 0,-527 0,-527 0,-521 6,-515 12,-515 12,-515 91,-515 91,-515 97,-515 103,-521 103,-527 103,-527 103,-539 103,-539 103,-545 97,-551 91,-551"/>
<text text-anchor="middle" x="51.5" y="-529.6" font-family="DejaVu Sans" font-size="13.00">Компьютер</text>
</g>
<!-- Системный блок -->
<g id="node2" class="node">
<title>Системный блок</title>
<path fill="#f8f8f8" stroke="#404040" d="M392,-913C392,-913 277,-913 277,-913 271,-913 265,-907 265,-901 265,-901 265,-889 265,-889 265,-883 271,-877 277,-877 277,-877 392,-877 392,-877 398,-877 404,-883 404,-889 404,-889 404,-901 404,-901 404,-907 398,-913 392,-913"/>
<text text-anchor="middle" x="334.5" y="-891.6" font-family="DejaVu Sans" font-size="13.00">Системный блок</text>
</g>
<!-- Периферийные устройства -->
<g id="node3" class="node">
<title>Периферийные устройства</title>
<path fill="#f8f8f8" stroke="#404040" d="M429,-279C429,-279 240,-279 240,-279 234,-279 228,-273 228,-267 228,-267 228,-255 228,-255 228,-249 234,-243 240,-243 240,-243 429,-243 429,-243 435,-243 441,-249 441,-255 441,-255 441,-267 441,-267 441,-273 435,-279 429,-279"/>
<text text-anchor="middle" x="334.5" y="-257.6" font-family="DejaVu Sans" font-size="13.00">Периферийные устройства</text>
</g>
<!-- Основные комплектующие -->
<g id="node4" class="node">
<title>Основные комплектующие</title>
<path fill="#f8f8f8" stroke="#404040" d="M775,-913C775,-913 588,-913 588,-913 582,-913 576,-907 576,-901 576,-901 576,-889 576,-889 576,-883 582,-877 588,-877 588,-877 775,-877 775,-877 781,-877 787,-883 787,-889 787,-889 787,-901 787,-901 787,-907 781,-913 775,-913"/>
<text text-anchor="middle" x="681.5" y="-891.6" font-family="DejaVu Sans" font-size="13.00">Основные комплектующие</text>
</g>
<!-- Корпус -->
<g id="node5" class="node">
<title>Корпус</title>
<path fill="#f8f8f8" stroke="#404040" d="M706,-1003C706,-1003 657,-1003 657,-1003 651,-1003 645,-997 645,-991 645,-991 645,-979 645,-979 645,-973 651,-967 657,-967 657,-967 706,-967 706,-967 712,-967 718,-973 718,-979 718,-979 718,-991 718,-991 718,-997 712,-1003 706,-1003"/>
<text text-anchor="middle" x="681.5" y="-981.6" font-family="DejaVu Sans" font-size="13.00">Корпус</text>
</g>
<!-- Блок питания -->
<g id="node6" class="node">
<title>Блок питания</title>
<path fill="#f8f8f8" stroke="#404040" d="M728.5,-727C728.5,-727 634.5,-727 634.5,-727 628.5,-727 622.5,-721 622.5,-715 622.5,-715 622.5,-703 622.5,-703 622.5,-697 628.5,-691 634.5,-691 634.5,-691 728.5,-691 728.5,-691 734.5,-691 740.5,-697 740.5,-703 740.5,-703 740.5,-715 740.5,-715 740.5,-721 734.5,-727 728.5,-727"/>
<text text-anchor="middle" x="681.5" y="-705.6" font-family="DejaVu Sans" font-size="13.00">Блок питания</text>
</g>
<!-- Система охлаждения -->
<g id="node7" class="node">
<title>Система охлаждения</title>
<path fill="#f8f8f8" stroke="#404040" d="M756,-1159C756,-1159 607,-1159 607,-1159 601,-1159 595,-1153 595,-1147 595,-1147 595,-1135 595,-1135 595,-1129 601,-1123 607,-1123 607,-1123 756,-1123 756,-1123 762,-1123 768,-1129 768,-1135 768,-1135 768,-1147 768,-1147 768,-1153 762,-1159 756,-1159"/>
<text text-anchor="middle" x="681.5" y="-1137.6" font-family="DejaVu Sans" font-size="13.00">Система охлаждения</text>
</g>
<!-- Устройство ввода -->
<g id="node8" class="node">
<title>Устройство ввода</title>
<path fill="#f8f8f8" stroke="#404040" d="M743.5,-279C743.5,-279 619.5,-279 619.5,-279 613.5,-279 607.5,-273 607.5,-267 607.5,-267 607.5,-255 607.5,-255 607.5,-249 613.5,-243 619.5,-243 619.5,-243 743.5,-243 743.5,-243 749.5,-243 755.5,-249 755.5,-255 755.5,-255 755.5,-267 755.5,-267 755.5,-273 749.5,-279 743.5,-279"/>
<text text-anchor="middle" x="681.5" y="-257.6" font-family="DejaVu Sans" font-size="13.00">Устройство ввода</text>
</g>
<!-- Устройство вывода -->
<g id="node9" class="node">
<title>Устройство вывода</title>
<path fill="#f8f8f8" stroke="#404040" d="M749,-126C749,-126 614,-126 614,-126 608,-126 602,-120 602,-114 602,-114 602,-102 602,-102 602,-96 608,-90 614,-90 614,-90 749,-90 749,-90 755,-90 761,-96 761,-102 761,-102 761,-114 761,-114 761,-120 755,-126 749,-126"/>
<text text-anchor="middle" x="681.5" y="-104.6" font-family="DejaVu Sans" font-size="13.00">Устройство вывода</text>
</g>
<!-- Материнская плата -->
<g id="node10" class="node">
<title>Материнская плата</title>
<path fill="#f8f8f8" stroke="#404040" d="M1088.5,-598C1088.5,-598 952.5,-598 952.5,-598 946.5,-598 940.5,-592 940.5,-586 940.5,-586 940.5,-574 940.5,-574 940.5,-568 946.5,-562 952.5,-562 952.5,-562 1088.5,-562 1088.5,-562 1094.5,-562 1100.5,-568 1100.5,-574 1100.5,-574 1100.5,-586 1100.5,-586 1100.5,-592 1094.5,-598 1088.5,-598"/>
<text text-anchor="middle" x="1020.5" y="-576.6" font-family="DejaVu Sans" font-size="13.00">Материнская плата</text>
</g>
<!-- Процессор -->
<g id="node11" class="node">
<title>Процессор</title>
<path fill="#f8f8f8" stroke="#404040" d="M1058.5,-1136C1058.5,-1136 982.5,-1136 982.5,-1136 976.5,-1136 970.5,-1130 970.5,-1124 970.5,-1124 970.5,-1112 970.5,-1112 970.5,-1106 976.5,-1100 982.5,-1100 982.5,-1100 1058.5,-1100 1058.5,-1100 1064.5,-1100 1070.5,-1106 1070.5,-1112 1070.5,-1112 1070.5,-1124 1070.5,-1124 1070.5,-1130 1064.5,-1136 1058.5,-1136"/>
<text text-anchor="middle" x="1020.5" y="-1114.6" font-family="DejaVu Sans" font-size="13.00">Процессор</text>
</g>
<!-- Оперативная память -->
<g id="node12" class="node">
<title>Оперативная память</title>
<path fill="#f8f8f8" stroke="#404040" d="M1093,-979C1093,-979 948,-979 948,-979 942,-979 936,-973 936,-967 936,-967 936,-955 936,-955 936,-949 942,-943 948,-943 948,-943 1093,-943 1093,-943 1099,-943 1105,-949 1105,-955 1105,-955 1105,-967 1105,-967 1105,-973 1099,-979 1093,-979"/>
<text text-anchor="middle" x="1020.5" y="-957.6" font-family="DejaVu Sans" font-size="13.00">Оперативная память</text>
</g>
<!-- Накопитель данных -->
<g id="node13" class="node">
<title>Накопитель данных</title>
<path fill="#f8f8f8" stroke="#404040" d="M1090,-754C1090,-754 951,-754 951,-754 945,-754 939,-748 939,-742 939,-742 939,-730 939,-730 939,-724 945,-718 951,-718 951,-718 1090,-718 1090,-718 1096,-718 1102,-724 1102,-730 1102,-730 1102,-742 1102,-742 1102,-748 1096,-754 1090,-754"/>
<text text-anchor="middle" x="1020.5" y="-732.6" font-family="DejaVu Sans" font-size="13.00">Накопитель данных</text>
</g>
<!-- Видеокарта -->
<g id="node14" class="node">
<title>Видеокарта</title>
<path fill="#f8f8f8" stroke="#404040" d="M1062,-844C1062,-844 979,-844 979,-844 973,-844 967,-838 967,-832 967,-832 967,-820 967,-820 967,-814 973,-808 979,-808 979,-808 1062,-808 1062,-808 1068,-808 1074,-814 1074,-820 1074,-820 1074,-832 1074,-832 1074,-838 1068,-844 1062,-844"/>
<text text-anchor="middle" x="1020.5" y="-822.6" font-family="DejaVu Sans" font-size="13.00">Видеокарта</text>
</g>
<!-- Клавиатура -->
<g id="node15" class="node">
<title>Клавиатура</title>
<path fill="#f8f8f8" stroke="#404040" d="M1061.5,-216C1061.5,-216 979.5,-216 979.5,-216 973.5,-216 967.5,-210 967.5,-204 967.5,-204 967.5,-192 967.5,-192 967.5,-186 973.5,-180 979.5,-180 979.5,-180 1061.5,-180 1061.5,-180 1067.5,-180 1073.5,-186 1073.5,-192 1073.5,-192 1073.5,-204 1073.5,-204 1073.5,-210 1067.5,-216 1061.5,-216"/>
<text text-anchor="middle" x="1020.5" y="-194.6" font-family="DejaVu Sans" font-size="13.00">Клавиатура</text>
</g>
<!-- Мышь -->
<g id="node16" class="node">
<title>Мышь</title>
<path fill="#f8f8f8" stroke="#404040" d="M1041.5,-306C1041.5,-306 999.5,-306 999.5,-306 993.5,-306 987.5,-300 987.5,-294 987.5,-294 987.5,-282 987.5,-282 987.5,-276 993.5,-270 999.5,-270 999.5,-270 1041.5,-270 1041.5,-270 1047.5,-270 1053.5,-276 1053.5,-282 1053.5,-282 1053.5,-294 1053.5,-294 1053.5,-300 1047.5,-306 1041.5,-306"/>
<text text-anchor="middle" x="1020.5" y="-284.6" font-family="DejaVu Sans" font-size="13.00">Мышь</text>
</g>
<!-- Монитор -->
<g id="node17" class="node">
<title>Монитор</title>
<path fill="#f8f8f8" stroke="#404040" d="M1051,-36C1051,-36 990,-36 990,-36 984,-36 978,-30 978,-24 978,-24 978,-12 978,-12 978,-6 984,0 990,0 990,0 1051,0 1051,0 1057,0 1063,-6 1063,-12 1063,-12 1063,-24 1063,-24 1063,-30 1057,-36 1051,-36"/>
<text text-anchor="middle" x="1020.5" y="-14.6" font-family="DejaVu Sans" font-size="13.00">Монитор</text>
</g>
<!-- Принтер -->
<g id="node18" class="node">
<title>Принтер</title>
<path fill="#f8f8f8" stroke="#404040" d="M1050,-126C1050,-126 991,-126 991,-126 985,-126 979,-120 979,-114 979,-114 979,-102 979,-102 979,-96 985,-90 991,-90 991,-90 1050,-90 1050,-90 1056,-90 1062,-96 1062,-102 1062,-102 1062,-114 1062,-114 1062,-120 1056,-126 1050,-126"/>
<text text-anchor="middle" x="1020.5" y="-104.6" font-family="DejaVu Sans" font-size="13.00">Принтер</text>
</g>
<!-- BIOS/UEFI -->
<g id="node19" class="node">
<title>BIOS/UEFI</title>
<path fill="#f8f8f8" stroke="#404040" d="M1385,-609C1385,-609 1319,-609 1319,-609 1313,-609 1307,-603 1307,-597 1307,-597 1307,-585 1307,-585 1307,-579 1313,-573 1319,-573 1319,-573 1385,-573 1385,-573 1391,-573 1397,-579 1397,-585 1397,-585 1397,-597 1397,-597 1397,-603 1391,-609 1385,-609"/>
<text text-anchor="middle" x="1352" y="-587.6" font-family="DejaVu Sans" font-size="13.00">BIOS/UEFI</text>
</g>
<!-- HDD -->
<g id="node20" class="node">
<title>HDD</title>
<path fill="#f8f8f8" stroke="#404040" d="M1367,-789C1367,-789 1337,-789 1337,-789 1331,-789 1325,-783 1325,-777 1325,-777 1325,-765 1325,-765 1325,-759 1331,-753 1337,-753 1337,-753 1367,-753 1367,-753 1373,-753 1379,-759 1379,-765 1379,-765 1379,-777 1379,-777 1379,-783 1373,-789 1367,-789"/>
<text text-anchor="middle" x="1352" y="-767.6" font-family="DejaVu Sans" font-size="13.00">HDD</text>
</g>
<!-- SSD -->
<g id="node21" class="node">
<title>SSD</title>
<path fill="#f8f8f8" stroke="#404040" d="M1367,-519C1367,-519 1337,-519 1337,-519 1331,-519 1325,-513 1325,-507 1325,-507 1325,-495 1325,-495 1325,-489 1331,-483 1337,-483 1337,-483 1367,-483 1367,-483 1373,-483 1379,-489 1379,-495 1379,-495 1379,-507 1379,-507 1379,-513 1373,-519 1367,-519"/>
<text text-anchor="middle" x="1352" y="-497.6" font-family="DejaVu Sans" font-size="13.00">SSD</text>
</g>
<!-- Intel Core i5 -->
<g id="node22" class="node">
<title>Intel Core i5</title>
<path fill="#f8f8f8" stroke="#404040" d="M1393,-1149C1393,-1149 1311,-1149 1311,-1149 1305,-1149 1299,-1143 1299,-1137 1299,-1137 1299,-1125 1299,-1125 1299,-1119 1305,-1113 1311,-1113 1311,-1113 1393,-1113 1393,-1113 1399,-1113 1405,-1119 1405,-1125 1405,-1125 1405,-1137 1405,-1137 1405,-1143 1399,-1149 1393,-1149"/>
<text text-anchor="middle" x="1352" y="-1127.6" font-family="DejaVu Sans" font-size="13.00">Intel Core i5</text>
</g>
<!-- AMD Ryzen 5 -->
<g id="node23" class="node">
<title>AMD Ryzen 5</title>
<path fill="#f8f8f8" stroke="#404040" d="M1395.5,-1239C1395.5,-1239 1308.5,-1239 1308.5,-1239 1302.5,-1239 1296.5,-1233 1296.5,-1227 1296.5,-1227 1296.5,-1215 1296.5,-1215 1296.5,-1209 1302.5,-1203 1308.5,-1203 1308.5,-1203 1395.5,-1203 1395.5,-1203 1401.5,-1203 1407.5,-1209 1407.5,-1215 1407.5,-1215 1407.5,-1227 1407.5,-1227 1407.5,-1233 1401.5,-1239 1395.5,-1239"/>
<text text-anchor="middle" x="1352" y="-1217.6" font-family="DejaVu Sans" font-size="13.00">AMD Ryzen 5</text>
</g>
<!-- Kingston Fury 16 GB -->
<g id="node24" class="node">
<title>Kingston Fury 16 GB</title>
<path fill="#f8f8f8" stroke="#404040" d="M1419,-969C1419,-969 1285,-969 1285,-969 1279,-969 1273,-963 1273,-957 1273,-957 1273,-945 1273,-945 1273,-939 1279,-933 1285,-933 1285,-933 1419,-933 1419,-933 1425,-933 1431,-939 1431,-945 1431,-945 1431,-957 1431,-957 1431,-963 1425,-969 1419,-969"/>
<text text-anchor="middle" x="1352" y="-947.6" font-family="DejaVu Sans" font-size="13.00">Kingston Fury 16 GB</text>
</g>
<!-- NVIDIA GeForce RTX 3060 -->
<g id="node25" class="node">
<title>NVIDIA GeForce RTX 3060</title>
<path fill="#f8f8f8" stroke="#404040" d="M1438,-879C1438,-879 1266,-879 1266,-879 1260,-879 1254,-873 1254,-867 1254,-867 1254,-855 1254,-855 1254,-849 1260,-843 1266,-843 1266,-843 1438,-843 1438,-843 1444,-843 1450,-849 1450,-855 1450,-855 1450,-867 1450,-867 1450,-873 1444,-879 1438,-879"/>
<text text-anchor="middle" x="1352" y="-857.6" font-family="DejaVu Sans" font-size="13.00">NVIDIA GeForce RTX 3060</text>
</g>
<!-- Chieftec 650W -->
<g id="node26" class="node">
<title>Chieftec 650W</title>
<path fill="#f8f8f8" stroke="#404040" d="M1400.5,-429C1400.5,-429 1303.5,-429 1303.5,-429 1297.5,-429 1291.5,-423 1291.5,-417 1291.5,-417 1291.5,-405 1291.5,-405 1291.5,-399 1297.5,-393 1303.5,-393 1303.5,-393 1400.5,-393 1400.5,-393 1406.5,-393 1412.5,-399 1412.5,-405 1412.5,-405 1412.5,-417 1412.5,-417 1412.5,-423 1406.5,-429 1400.5,-429"/>
<text text-anchor="middle" x="1352" y="-407.6" font-family="DejaVu Sans" font-size="13.00">Chieftec 650W</text>
</g>
<!-- Операционная система -->
<g id="node27" class="node">
<title>Операционная система</title>
<path fill="#f8f8f8" stroke="#404040" d="M1772,-699C1772,-699 1609,-699 1609,-699 1603,-699 1597,-693 1597,-687 1597,-687 1597,-675 1597,-675 1597,-669 1603,-663 1609,-663 1609,-663 1772,-663 1772,-663 1778,-663 1784,-669 1784,-675 1784,-675 1784,-687 1784,-687 1784,-693 1778,-699 1772,-699"/>
<text text-anchor="middle" x="1690.5" y="-677.6" font-family="DejaVu Sans" font-size="13.00">Операционная система</text>
</g>
<!-- Samsung 970 EVO -->
<g id="node28" class="node">
<title>Samsung 970 EVO</title>
<path fill="#f8f8f8" stroke="#404040" d="M1752,-519C1752,-519 1629,-519 1629,-519 1623,-519 1617,-513 1617,-507 1617,-507 1617,-495 1617,-495 1617,-489 1623,-483 1629,-483 1629,-483 1752,-483 1752,-483 1758,-483 1764,-489 1764,-495 1764,-495 1764,-507 1764,-507 1764,-513 1758,-519 1752,-519"/>
<text text-anchor="middle" x="1690.5" y="-497.6" font-family="DejaVu Sans" font-size="13.00">Samsung 970 EVO</text>
</g>
<!-- Windows 11 -->
<g id="node29" class="node">
<title>Windows 11</title>
<path fill="#f8f8f8" stroke="#404040" d="M1392,-1059C1392,-1059 1312,-1059 1312,-1059 1306,-1059 1300,-1053 1300,-1047 1300,-1047 1300,-1035 1300,-1035 1300,-1029 1306,-1023 1312,-1023 1312,-1023 1392,-1023 1392,-1023 1398,-1023 1404,-1029 1404,-1035 1404,-1035 1404,-1047 1404,-1047 1404,-1053 1398,-1059 1392,-1059"/>
<text text-anchor="middle" x="1352" y="-1037.6" font-family="DejaVu Sans" font-size="13.00">Windows 11</text>
</g>
<!-- Ubuntu Linux -->
<g id="node30" class="node">
<title>Ubuntu Linux</title>
<path fill="#f8f8f8" stroke="#404040" d="M1396,-699C1396,-699 1308,-699 1308,-699 1302,-699 1296,-693 1296,-687 1296,-687 1296,-675 1296,-675 1296,-669 1302,-663 1308,-663 1308,-663 1396,-663 1396,-663 1402,-663 1408,-669 1408,-675 1408,-675 1408,-687 1408,-687 1408,-693 1402,-699 1396,-699"/>
<text text-anchor="middle" x="1352" y="-677.6" font-family="DejaVu Sans" font-size="13.00">Ubuntu Linux</text>
</g>
</g>
</svg>
